<svg xmlns="http://www.w3.org/2000/svg" viewBox="0 0 287.1348 71.3672"><defs><style>.cls-1{font-size:60px;fill:#333;font-family:FjallaOne-Regular, Fjalla One;}.cls-2{letter-spacing:-0.0151em;}.cls-3{letter-spacing:0.001em;}.cls-4{fill:#8cc0de;}.cls-5{fill:#4d7891;}</style></defs><g id="Ebene_1" data-name="Ebene 1"><text class="cls-1" transform="translate(70.2798 55.811)"><tspan class="cls-2">c</tspan><tspan x="24.375" y="0">inemo</tspan><tspan class="cls-3" x="167.8706" y="0">r</tspan><tspan x="190.8394" y="0">y</tspan></text></g><g id="Ebene_2" data-name="Ebene 2"><path class="cls-4" d="M64.3842,58.0711v6.3131H32.9988A31.2478,31.2478,0,0,0,51.88,58.0711Z"/><path class="cls-4" d="M32.9988,1.6158A31.3842,31.3842,0,1,1,1.6158,32.9989,31.3846,31.3846,0,0,1,32.9988,1.6158Zm19.9549,20.08a7,7,0,1,0-7.0009,7.001A6.9992,6.9992,0,0,0,52.9537,21.6953Zm0,24.3914a7,7,0,1,0-7.0009,6.9986A7.0012,7.0012,0,0,0,52.9537,46.0867ZM36.8282,33.89a3.0688,3.0688,0,1,0-3.07,3.07A3.07,3.07,0,0,0,36.8282,33.89ZM28.5624,21.6953a6.9987,6.9987,0,1,0-6.9987,7.001A6.9972,6.9972,0,0,0,28.5624,21.6953Zm0,24.3914a6.9987,6.9987,0,1,0-6.9987,6.9986A6.9992,6.9992,0,0,0,28.5624,46.0867Z"/><path class="cls-5" d="M32.9988,66a32.9976,32.9976,0,1,1,19.8547-6.639A33.0374,33.0374,0,0,1,32.9988,66Zm0-62.7684a29.7692,29.7692,0,1,0,29.77,29.7672,29.8009,29.8009,0,0,0-29.77-29.7672Z"/><path class="cls-5" d="M20.8713,29.62a8.6156,8.6156,0,1,1,8.6144-8.6168A8.6254,8.6254,0,0,1,20.8713,29.62Zm0-14a5.384,5.384,0,1,0,5.3828,5.3828A5.389,5.389,0,0,0,20.8713,15.62Zm24.389,14a8.6156,8.6156,0,1,1,8.6167-8.6168A8.6254,8.6254,0,0,1,45.26,29.62Zm0-14a5.384,5.384,0,1,0,5.3852,5.3828A5.3889,5.3889,0,0,0,45.26,15.62ZM20.8713,54.0086a8.6156,8.6156,0,1,1,8.6144-8.6144A8.6243,8.6243,0,0,1,20.8713,54.0086Zm0-14a5.384,5.384,0,1,0,5.3828,5.3852A5.39,5.39,0,0,0,20.8713,40.009Zm24.389,14a8.6156,8.6156,0,1,1,8.6167-8.6144A8.6243,8.6243,0,0,1,45.26,54.0086Zm0-14a5.384,5.384,0,1,0,5.3852,5.3852A5.39,5.39,0,0,0,45.26,40.009ZM33.0658,37.8831a4.6846,4.6846,0,1,1,4.6857-4.6857,4.69,4.69,0,0,1-4.6857,4.6857Zm0-6.1376A1.4531,1.4531,0,1,0,34.52,33.1974a1.4537,1.4537,0,0,0-1.4542-1.4519ZM64.3842,66H32.9988a1.6158,1.6158,0,0,1,0-3.2316H64.3842a1.6158,1.6158,0,1,1,0,3.2316Zm0-6.3131H51.88a1.6158,1.6158,0,1,1,0-3.2315H64.3842a1.6158,1.6158,0,1,1,0,3.2315Z"/></g></svg>